<?xml version="1.0" encoding="utf-8"?>
<!-- Generator: Adobe Illustrator 26.0.2, SVG Export Plug-In . SVG Version: 6.00 Build 0)  -->
<svg version="1.1" id="Layer_1" xmlns="http://www.w3.org/2000/svg" xmlns:xlink="http://www.w3.org/1999/xlink" x="0px" y="0px"
	 viewBox="0 0 1000 1000" style="enable-background:new 0 0 1000 1000;" xml:space="preserve">
<style type="text/css">
	.st0{fill:#FFFFFF;}
	.st1{fill-rule:evenodd;clip-rule:evenodd;fill:#FFFFFF;}
</style>
<g>
	<g>
		<path class="st0" d="M365.04,611.73v27.26h-6.94v-27.26H350v-5.78h23.19v5.78H365.04z"/>
		<path class="st0" d="M392.62,623.63v5.78c0,3.58-0.86,6.16-2.57,7.75s-4.25,2.38-7.61,2.38c-3.36,0-5.89-0.79-7.59-2.38
			c-1.7-1.59-2.55-4.17-2.55-7.75v-5.78c0-3.58,0.85-6.16,2.55-7.75c1.7-1.59,4.23-2.38,7.59-2.38c3.36,0,5.9,0.79,7.61,2.38
			S392.62,620.05,392.62,623.63z M378.78,623.17v6.71c0,1.7,0.3,2.93,0.9,3.7c0.6,0.77,1.52,1.16,2.75,1.16
			c1.27,0,2.2-0.39,2.8-1.16c0.6-0.77,0.9-2.01,0.9-3.7v-6.71c0-1.7-0.3-2.93-0.9-3.7c-0.6-0.77-1.54-1.16-2.8-1.16
			c-1.23,0-2.15,0.39-2.75,1.16C379.08,620.23,378.78,621.47,378.78,623.17z"/>
		<path class="st0" d="M402.89,637.14v9.26h-6.53v-32.35h6.02v2.59h0.19c0.59-0.99,1.4-1.76,2.43-2.31
			c1.03-0.56,2.21-0.83,3.54-0.83c2.56,0,4.55,0.77,5.97,2.31c1.42,1.54,2.13,4.15,2.13,7.82v5.78c0,3.64-0.71,6.24-2.13,7.8
			c-1.42,1.56-3.41,2.34-5.97,2.34c-2.38,0-4.2-0.8-5.46-2.41H402.89z M406.55,618.4c-1.27,0-2.26,0.39-2.99,1.16
			c-0.72,0.77-1.09,1.97-1.09,3.61v6.71c0,1.64,0.36,2.84,1.09,3.61c0.73,0.77,1.72,1.16,2.99,1.16c1.2,0,2.11-0.39,2.71-1.16
			c0.6-0.77,0.9-1.97,0.9-3.61v-6.71c0-1.64-0.3-2.84-0.9-3.61C408.65,618.78,407.75,618.4,406.55,618.4z"/>
		<path class="st0" d="M450.56,641.45l-4.49,1.9l-1.94-3.93c-1.02,0.19-2.08,0.28-3.19,0.28c-4.01,0-7.03-1.08-9.07-3.24
			c-2.04-2.16-3.05-5.24-3.05-9.26v-9.44c0-4.01,1.02-7.1,3.05-9.26c2.04-2.16,5.06-3.24,9.07-3.24c3.98,0,6.99,1.08,9.02,3.24
			c2.04,2.16,3.05,5.24,3.05,9.26v9.44c0,4.84-1.47,8.31-4.4,10.41L450.56,641.45z M446.07,627.93v-10.78
			c0-2.16-0.42-3.76-1.27-4.79c-0.85-1.03-2.14-1.55-3.86-1.55c-1.73,0-3.03,0.52-3.91,1.55c-0.88,1.03-1.32,2.63-1.32,4.79v10.78
			c0,2.16,0.44,3.76,1.32,4.79c0.88,1.03,2.18,1.55,3.91,1.55l0.6-0.05l-2.73-5.46l4.44-1.85l2.27,4.54
			C445.88,630.52,446.07,629.35,446.07,627.93z"/>
		<path class="st0" d="M457.08,632.14v-18.09h6.53v16.24c0,1.48,0.25,2.52,0.76,3.12c0.51,0.6,1.3,0.9,2.38,0.9
			c1.17,0,2.13-0.4,2.87-1.2c0.74-0.8,1.11-2.08,1.11-3.84v-15.23h6.48v24.94h-6.02v-2.87h-0.19c-1.54,2.28-3.7,3.42-6.48,3.42
			c-2.35,0-4.17-0.62-5.48-1.85C457.74,636.46,457.08,634.61,457.08,632.14z"/>
		<path class="st0" d="M501.51,638.99h-4.03c-1.08,0-1.89-0.15-2.43-0.46c-0.54-0.31-0.87-0.89-1-1.76l-0.05-0.28
			c-0.65,0.96-1.51,1.7-2.59,2.24c-1.08,0.54-2.31,0.81-3.7,0.81c-4.75,0-7.13-2.36-7.13-7.08v-0.42c0-1.94,0.47-3.45,1.41-4.51
			c0.94-1.06,2.54-2.06,4.79-2.99l4.72-1.94c0.62-0.28,1.06-0.59,1.34-0.93s0.42-0.8,0.42-1.39v-0.09c0-0.65-0.22-1.17-0.67-1.55
			c-0.45-0.39-1.1-0.58-1.97-0.58c-0.93,0-1.64,0.21-2.15,0.62c-0.51,0.42-0.76,1.04-0.76,1.87v1.11h-6.53v-0.83
			c0-2.78,0.8-4.7,2.41-5.76c1.6-1.06,3.95-1.6,7.03-1.6c3.02,0,5.3,0.51,6.83,1.53s2.29,2.88,2.29,5.6v12.63
			c0,0.4,0.07,0.67,0.21,0.81c0.14,0.14,0.39,0.21,0.76,0.21h0.79V638.99z M493.27,630.85v-4.26c-0.09,0.09-0.29,0.22-0.58,0.37
			c-0.29,0.15-0.64,0.32-1.04,0.51l-1.9,1.02c-0.86,0.43-1.5,0.93-1.9,1.5c-0.4,0.57-0.6,1.24-0.6,2.01v0.83
			c0,0.74,0.2,1.32,0.6,1.74c0.4,0.42,1,0.62,1.8,0.62c0.96,0,1.8-0.36,2.52-1.09C492.91,633.39,493.27,632.3,493.27,630.85z"/>
		<path class="st0" d="M504,605.49h6.53v33.51H504V605.49z"/>
		<path class="st0" d="M521.22,605.49v5.46h-6.43v-5.46H521.22z M521.31,614.05v24.94h-6.53v-24.94H521.31z"/>
		<path class="st0" d="M534.17,632.33c0,0.74,0.12,1.25,0.37,1.53c0.25,0.28,0.74,0.42,1.48,0.42h2.27v4.72h-4.49
			c-1.64,0-2.88-0.18-3.75-0.53c-0.86-0.35-1.47-0.96-1.83-1.83c-0.35-0.86-0.53-2.11-0.53-3.75v-14.02h-3.38v-4.81h3.38v-6.29h6.48
			v6.29h4.12v4.81h-4.12V632.33z"/>
		<path class="st0" d="M553.61,640.75c-0.59,2.13-1.33,3.6-2.24,4.42c-0.91,0.82-2.32,1.23-4.23,1.23h-4.72v-5.23h3.24
			c0.49,0,0.87-0.08,1.13-0.25c0.26-0.17,0.47-0.47,0.62-0.9l0.14-0.51l-7.59-25.45h6.9l1.9,7.73c0.37,1.73,0.97,4.72,1.81,8.98
			h0.19c0.83-4.35,1.45-7.4,1.85-9.16l1.85-7.54h6.9L553.61,640.75z"/>
		<path class="st0" d="M573,605.95h6.9v27.26h12.03v5.78H573V605.95z"/>
		<path class="st0" d="M601.87,605.49v5.46h-6.43v-5.46H601.87z M601.97,614.05v24.94h-6.53v-24.94H601.97z"/>
		<path class="st0" d="M626.35,620.9v18.09h-6.48v-16.24c0-1.48-0.25-2.52-0.76-3.12c-0.51-0.6-1.32-0.9-2.43-0.9
			c-1.14,0-2.08,0.4-2.82,1.2c-0.74,0.8-1.11,2.08-1.11,3.84v15.23h-6.53v-24.94h6.02v2.87h0.19c1.57-2.28,3.73-3.42,6.48-3.42
			c2.34,0,4.17,0.62,5.48,1.85C625.7,616.58,626.35,618.43,626.35,620.9z"/>
		<path class="st0" d="M636.58,630.71c0,1.45,0.29,2.53,0.86,3.24c0.57,0.71,1.46,1.06,2.66,1.06c1.23,0,2.1-0.32,2.59-0.97
			c0.49-0.65,0.74-1.56,0.74-2.73h6.34c0,2.81-0.76,4.88-2.27,6.22c-1.51,1.34-3.93,2.01-7.27,2.01c-3.55,0-6.12-0.78-7.73-2.34
			c-1.6-1.56-2.41-4.16-2.41-7.8v-5.78c0-3.58,0.83-6.16,2.5-7.75c1.67-1.59,4.15-2.38,7.45-2.38c3.21,0,5.67,0.8,7.38,2.41
			s2.57,4.18,2.57,7.73v3.79h-13.42V630.71z M636.58,622.84h6.94v-0.74c0-1.33-0.27-2.33-0.81-3.01c-0.54-0.68-1.43-1.02-2.66-1.02
			c-2.31,0-3.47,1.34-3.47,4.03V622.84z"/>
	</g>
</g>
<g>
	<path class="st1" d="M441.1,569.42c-45.97-14.9-73.77-43.02-86.19-85.76c-18.89-65,18.39-132.07,82.98-151.28
		c0.14-0.05,0.58-0.09,0.58-0.14v11.63c-5.26,5.07-10.83,10.17-14.82,16.14c-24.39,36.39-30.17,77.06-24.06,119.67
		c4.12,28.9,15.26,54.72,36.14,75.89C438.29,558.17,438.64,562.88,441.1,569.42z"/>
	<path class="st1" d="M505.76,569.42c45.97-14.9,73.77-43.02,86.19-85.76c18.89-65-18.38-132.07-82.98-151.28
		c-0.13-0.05-0.57-0.09-0.57-0.14v11.63c5.26,5.07,10.83,10.17,14.83,16.14c24.39,36.39,30.17,77.06,24.06,119.67
		c-4.13,28.9-15.26,54.72-36.13,75.89C508.57,558.17,508.21,562.88,505.76,569.42z"/>
	<path class="st1" d="M650,506.63v84.05H434.92c14.19-3.16,14.88-13.78,14.84-25.84c-0.27-71.71-0.37-75.07-0.37-146.76l48.73-53.67
		c0.34,71.73,0.34,114.83,0.34,186.57v28.38c5.26,0.22,7.82,0.62,11.77,0.65c20.29,0.06,41.09-1.14,60.86-0.93
		c73.71,0.75,68.42-25.23,78.4-71.36C649.74,506.54,650,506.63,650,506.63S650,506.67,650,506.63z"/>
	<path class="st1" d="M487.8,293.46c0,0-0.01,0-0.01,0.01h-1.2L487.8,293.46z"/>
	<path class="st1" d="M593.86,293.65v49.83c-11.56-33.46-17.52-38.22-53.72-37.96c-13.39,0.09-27.54,0-42.19,0v45.95l-48.53,47.47
		c-0.12-9.47,0.08-69.46,0-79.24c-0.02-4.43,0-7.88,0-14.18c-14.65,0-28.8,0.09-42.19,0c-36.2-0.27-42.16,4.49-53.72,37.96v-49.83
		H593.86z"/>
</g>
</svg>
